<svg width="0" height="0" class="hidden">
  <symbol xmlns="http://www.w3.org/2000/svg" viewBox="0 0 14 12" id="copy">
    <rect x="2.46826" y="0.25" width="10.5917" height="9.5" rx="0.75" stroke-width="0.5"></rect>
    <rect x="0.25" y="2.25" width="10.5917" height="9.5" rx="0.75" fill="white" stroke-width="0.5"></rect>
  </symbol>
  <symbol xmlns="http://www.w3.org/2000/svg" viewBox="0 0 8 11" id="arrow-left">
    <path d="M7 0.5L1 5.5L7 10.5" stroke-linecap="round" stroke-linejoin="round"></path>
  </symbol>
  <symbol xmlns="http://www.w3.org/2000/svg" viewBox="0 0 8 11" id="arrow-right">
    <path d="M1 10.5L7 5.5L1 0.5" stroke-linecap="round" stroke-linejoin="round"></path>
  </symbol>
  <symbol xmlns="http://www.w3.org/2000/svg" viewBox="0 0 20 21" id="bonuses">
    <path
        d="m10 0 2.225 3.31 3.653-1.305-.053 4.051 3.686 1.2L17.2 10.5l2.31 3.245-3.685 1.199.053 4.05-3.653-1.304L10 21l-2.225-3.31-3.653 1.305.053-4.051-3.686-1.2L2.8 10.5.49 7.255l3.685-1.199-.053-4.05L7.775 3.31 10 0Z"></path>
  </symbol>
  <symbol xmlns="http://www.w3.org/2000/svg" viewBox="0 0 19 19" id="btn-close">
    <path stroke-width="3" d="M2 16.85 17 2M2 2.15 17 17"></path>
  </symbol>
  <symbol xmlns="http://www.w3.org/2000/svg" viewBox="0 0 24 24" id="facebook">
    <path
        d="M15.12 5.32H17V2.14A26.113 26.113 0 0 0 14.26 2c-2.72 0-4.58 1.66-4.58 4.7v2.62H6.61v3.56h3.07V22h3.68v-9.12h3.06l.46-3.56h-3.52V7.05c0-1.05.28-1.73 1.76-1.73Z"></path>
  </symbol>
  <symbol xmlns="http://www.w3.org/2000/svg" viewBox="0 0 24 24" id="instagram">
    <path
        d="M17.34 5.46a1.2 1.2 0 1 0 0 2.4 1.2 1.2 0 0 0 0-2.4Zm4.6 2.42a7.588 7.588 0 0 0-.46-2.43 4.94 4.94 0 0 0-1.16-1.77 4.7 4.7 0 0 0-1.77-1.15 7.3 7.3 0 0 0-2.43-.47C15.06 2 14.72 2 12 2s-3.06 0-4.12.06a7.3 7.3 0 0 0-2.43.47 4.78 4.78 0 0 0-1.77 1.15 4.7 4.7 0 0 0-1.15 1.77 7.3 7.3 0 0 0-.47 2.43C2 8.94 2 9.28 2 12s0 3.06.06 4.12a7.3 7.3 0 0 0 .47 2.43 4.7 4.7 0 0 0 1.15 1.77 4.78 4.78 0 0 0 1.77 1.15 7.3 7.3 0 0 0 2.43.47C8.94 22 9.28 22 12 22s3.06 0 4.12-.06a7.3 7.3 0 0 0 2.43-.47 4.7 4.7 0 0 0 1.77-1.15 4.85 4.85 0 0 0 1.16-1.77c.285-.78.44-1.6.46-2.43 0-1.06.06-1.4.06-4.12s0-3.06-.06-4.12ZM20.14 16a5.61 5.61 0 0 1-.34 1.86 3.06 3.06 0 0 1-.75 1.15c-.324.33-.717.586-1.15.75a5.61 5.61 0 0 1-1.86.34c-1 .05-1.37.06-4 .06s-3 0-4-.06a5.73 5.73 0 0 1-1.94-.3 3.27 3.27 0 0 1-1.1-.75 3 3 0 0 1-.74-1.15 5.54 5.54 0 0 1-.4-1.9c0-1-.06-1.37-.06-4s0-3 .06-4a5.54 5.54 0 0 1 .35-1.9A3 3 0 0 1 5 5a3.14 3.14 0 0 1 1.1-.8A5.73 5.73 0 0 1 8 3.86c1 0 1.37-.06 4-.06s3 0 4 .06a5.61 5.61 0 0 1 1.86.34 3.06 3.06 0 0 1 1.19.8c.328.307.584.683.75 1.1.222.609.337 1.252.34 1.9.05 1 .06 1.37.06 4s-.01 3-.06 4ZM12 6.87A5.13 5.13 0 1 0 17.14 12 5.12 5.12 0 0 0 12 6.87Zm0 8.46a3.33 3.33 0 1 1 0-6.66 3.33 3.33 0 0 1 0 6.66Z"></path>
  </symbol>
  <symbol xmlns="http://www.w3.org/2000/svg" viewBox="0 0 45 22" id="menu">
    <path d="M0 1h45M0 11h45M0 21h45"></path>
  </symbol>
  <symbol xmlns="http://www.w3.org/2000/svg" viewBox="0 0 36 34" id="menu-close">
    <path transform="matrix(.7101 .7041 -.7101 .7041 2 2)" stroke-width="2" d="M0-1h45.064"></path>
    <path transform="matrix(.7101 -.7041 .7101 .7041 2 34)" stroke-width="2" d="M0-1h45.064"></path>
  </symbol>
  <symbol xmlns="http://www.w3.org/2000/svg" viewBox="0 0 28 28" id="profile">
    <path fill-rule="evenodd"
          d="M28 14c0 7.732-6.268 14-14 14S0 21.732 0 14 6.268 0 14 0s14 6.268 14 14Zm-9.333-6.222a4.667 4.667 0 1 1-9.333 0 4.667 4.667 0 0 1 9.333 0Zm.833 8.5a7.778 7.778 0 0 1 2.278 5.5H6.222a7.778 7.778 0 0 1 13.278-5.5Z"
          clip-rule="evenodd"></path>
  </symbol>
  <symbol xmlns="http://www.w3.org/2000/svg" viewBox="0 0 20 21" id="reads">
    <path d="M0 0h20v21H0z"></path>
    <path d="M2 0h1v19H2z" fill="#826844"></path>
    <path d="M1 0h1v21H1z" fill="white"></path>
  </symbol>
  <symbol xmlns="http://www.w3.org/2000/svg" viewBox="0 0 24 24" id="twitter">
    <path
        d="M22.991 3.95a1 1 0 0 0-1.51-.86 7.48 7.48 0 0 1-1.873.794 5.152 5.152 0 0 0-3.375-1.242 5.232 5.232 0 0 0-5.223 5.063 11.032 11.032 0 0 1-6.814-3.924 1.011 1.011 0 0 0-.857-.365.998.998 0 0 0-.785.5 5.275 5.275 0 0 0-.242 4.769l-.002.002a1.041 1.041 0 0 0-.496.888 3.04 3.04 0 0 0 .027.44 5.185 5.185 0 0 0 1.568 3.312.999.999 0 0 0-.066.77 5.204 5.204 0 0 0 2.362 2.921 7.465 7.465 0 0 1-3.59.449A1 1 0 0 0 1.45 19.3a12.942 12.942 0 0 0 7.01 2.061 12.788 12.788 0 0 0 12.465-9.363c.353-1.183.533-2.412.535-3.646l-.001-.2a5.77 5.77 0 0 0 1.532-4.202Zm-3.306 3.212a.995.995 0 0 0-.234.702c.01.165.009.331.009.488a10.825 10.825 0 0 1-.454 3.08 10.685 10.685 0 0 1-10.546 7.93c-.86 0-1.715-.101-2.55-.301a9.48 9.48 0 0 0 2.942-1.564 1.001 1.001 0 0 0-.602-1.786 3.208 3.208 0 0 1-2.214-.935 4.87 4.87 0 0 0 .445-.105 1 1 0 0 0-.08-1.944 3.197 3.197 0 0 1-2.25-1.725c.181.025.363.04.545.046a1.022 1.022 0 0 0 .984-.696 1 1 0 0 0-.4-1.137 3.196 3.196 0 0 1-1.42-2.871 13.014 13.014 0 0 0 8.21 3.48 1.02 1.02 0 0 0 .817-.36 1 1 0 0 0 .206-.867 3.164 3.164 0 0 1-.087-.729 3.23 3.23 0 0 1 4.506-2.962c.403.176.766.433 1.065.756a.993.993 0 0 0 .921.298 9.27 9.27 0 0 0 1.212-.322 6.679 6.679 0 0 1-1.026 1.524Z"></path>
  </symbol>
  <symbol xmlns="http://www.w3.org/2000/svg" viewBox="0 0 21 21" id="visits">
    <path fill-rule="evenodd"
          d="M10.5 10a5 5 0 1 0 0-10 5 5 0 0 0 0 10Zm7.071 3.929A10 10 0 0 1 20.5 21H.5a10 10 0 0 1 17.071-7.071Z"
          clip-rule="evenodd"></path>
  </symbol>
</svg>